 <svg version="1.0" xmlns="http://www.w3.org/2000/svg" width="700.000000pt" height="105.000000pt" viewBox="0 0 700.000000 105.000000" preserveAspectRatio="xMidYMid meet">
<metadata>
Created by potrace 1.12, written by Peter Selinger 2001-2015
</metadata>
<g transform="translate(0.000000,105.000000) scale(0.100000,-0.100000)" fill="#000000" stroke="none">
<path d="M5285 842 c-47 -29 -53 -42 -59 -121 -5 -75 -17 -97 -46 -84 -13 6
-151 7 -235 3 -16 -1 -43 1 -59 5 -74 19 -227 -50 -242 -109 -7 -29 -8 -27
-13 21 -7 58 -28 82 -72 83 -29 0 -39 16 -39 59 0 49 -29 64 -114 59 -62 -3
-79 -7 -100 -27 -14 -14 -26 -32 -26 -42 0 -10 -11 -30 -24 -46 -21 -24 -26
-26 -50 -15 -14 6 -81 14 -148 18 -71 4 -126 12 -130 18 -4 6 -10 35 -14 65
-10 84 -28 95 -132 88 -117 -8 -131 -19 -147 -109 l-6 -38 -72 -2 c-40 0 -79
-1 -87 0 -8 1 -45 -3 -82 -8 -50 -8 -83 -20 -131 -50 l-64 -40 -56 29 c-80 42
-157 58 -213 43 -24 -7 -51 -12 -59 -12 -9 0 -33 -11 -54 -24 l-39 -25 -6 37
c-3 20 -6 63 -6 94 0 45 -4 61 -20 76 -24 22 -137 44 -161 31 -9 -4 -32 -6
-52 -2 -41 6 -126 -12 -178 -38 -37 -18 -120 -108 -132 -142 -8 -22 -20 -21
-90 3 -106 37 -206 21 -296 -47 -30 -23 -36 -25 -55 -13 -113 72 -119 74 -181
78 -70 5 -75 10 -75 83 0 21 -8 47 -19 60 l-18 23 -329 -2 c-443 -1 -452 -2
-476 -32 -19 -23 -20 -34 -14 -140 4 -71 11 -119 19 -127 7 -7 47 -16 90 -19
l77 -7 0 -40 c0 -56 -19 -103 -46 -116 -30 -13 -36 -41 -27 -116 l8 -60 173
-3 c110 -1 180 1 193 8 18 10 20 19 17 83 l-3 72 -40 21 c-35 18 -41 26 -47
65 -3 24 -7 58 -7 75 l-1 31 74 -5 c109 -7 122 -1 130 53 14 87 26 45 26 -85
0 -118 -2 -134 -21 -160 -20 -27 -21 -33 -10 -87 6 -31 16 -62 22 -68 12 -12
496 -16 521 -4 9 5 19 23 23 39 l7 31 35 -26 c55 -43 132 -65 222 -65 93 0 93
0 112 104 10 58 9 69 -5 85 -15 17 -13 31 6 31 4 0 14 -16 22 -35 22 -52 105
-135 161 -161 37 -18 68 -24 117 -24 79 0 136 19 195 67 23 18 45 33 49 33 4
0 26 -18 49 -39 50 -46 95 -61 183 -61 78 0 125 19 179 72 l42 41 40 -36 c59
-53 98 -70 176 -75 86 -5 140 9 191 49 37 30 39 30 42 10 5 -34 40 -48 112
-45 36 1 153 3 260 3 107 1 201 5 208 9 17 11 27 104 14 129 -6 11 -28 25 -49
31 -21 6 -54 27 -73 47 -33 34 -33 35 -15 55 11 12 31 20 50 20 41 0 55 16 55
64 0 30 3 37 10 26 5 -8 10 -26 10 -39 0 -14 10 -35 21 -47 15 -16 23 -40 26
-76 6 -91 31 -158 73 -200 34 -35 42 -38 91 -37 80 0 169 42 195 91 8 15 15
12 60 -22 61 -48 131 -65 201 -50 31 7 56 7 77 0 20 -6 122 -8 281 -4 269 6
259 6 385 1 47 -2 123 0 170 4 59 5 89 4 99 -4 9 -8 71 -11 185 -12 193 0 214
6 290 75 46 43 56 42 56 -1 0 -19 8 -34 24 -44 56 -37 357 -46 422 -12 18 9
43 31 58 49 14 18 31 38 36 45 6 7 10 40 10 73 0 33 -4 66 -10 73 -5 7 -22 27
-36 45 l-27 34 21 44 c70 143 -22 261 -224 288 -23 3 -88 1 -144 -4 -109 -10
-140 -24 -140 -64 0 -39 -14 -49 -36 -25 -46 51 -151 87 -273 94 -80 4 -226
-18 -250 -38 -10 -9 -12 -29 -7 -87 5 -67 9 -78 36 -102 27 -25 30 -34 30 -87
0 -78 -11 -104 -53 -129 l-35 -20 -19 20 c-16 18 -18 40 -18 225 0 248 10 233
-147 233 -95 0 -110 -2 -128 -20 -11 -11 -20 -28 -20 -37 0 -43 31 -129 51
-144 20 -15 21 -22 17 -125 -4 -97 -7 -113 -28 -137 -24 -27 -63 -36 -76 -16
-3 6 -10 63 -15 127 -8 98 -13 120 -29 134 -20 16 -20 17 5 54 44 65 26 138
-45 174 -49 25 -76 25 -115 2z m126 -48 c13 -12 19 -31 19 -58 0 -47 -6 -58
-37 -75 -53 -28 -117 5 -129 66 -5 27 -1 37 25 64 28 27 37 31 68 26 19 -4 44
-14 54 -23z m363 -10 c14 -13 16 -49 16 -243 l0 -228 29 -6 c24 -5 31 -13 36
-41 11 -56 4 -69 -40 -79 -41 -8 -218 -3 -235 8 -6 3 -10 28 -10 55 0 43 3 50
28 62 l27 13 3 145 c1 80 0 154 -2 166 -3 11 -17 26 -31 32 -24 11 -26 16 -23
65 3 51 4 52 38 58 72 13 148 10 164 -7z m-4546 -6 c13 -13 17 -192 6 -222 -3
-8 -21 -18 -40 -22 -46 -8 -80 15 -95 66 -13 44 -35 52 -47 18 -4 -13 -5 -84
-2 -158 l5 -134 41 -9 c37 -7 43 -11 48 -42 4 -18 4 -45 1 -58 -6 -24 -8 -25
-148 -29 -192 -6 -187 -8 -187 57 l0 53 43 14 42 13 3 146 c2 121 0 148 -13
159 -21 18 -45 5 -45 -24 0 -14 -4 -36 -10 -50 -8 -22 -16 -26 -50 -26 -75 0
-80 7 -80 119 0 75 4 101 15 111 30 25 490 41 513 18z m248 0 c4 -6 7 -34 6
-62 -1 -28 1 -63 4 -77 5 -25 5 -26 84 -21 69 4 83 2 115 -18 54 -34 78 -88
83 -195 3 -71 8 -94 24 -111 14 -16 18 -33 16 -60 l-3 -39 -67 -9 c-38 -4 -88
-4 -115 0 -48 9 -48 9 -51 51 -3 34 1 44 17 53 18 9 21 20 21 72 0 68 -17 98
-57 98 -34 0 -61 -32 -68 -83 -8 -50 4 -82 35 -92 15 -5 20 -15 20 -45 0 -21
-4 -41 -8 -44 -5 -3 -55 -6 -111 -8 -113 -2 -121 1 -121 58 0 23 7 36 25 48
24 16 24 17 24 164 -1 81 -3 155 -6 165 -2 9 -18 24 -34 32 -25 13 -29 21 -29
56 0 72 9 79 105 79 53 0 86 -4 91 -12z m1219 -4 c18 -8 36 -21 38 -29 10 -24
-10 -187 -23 -195 -19 -12 -94 -22 -112 -15 -8 3 -21 17 -29 31 -19 36 -63 58
-89 44 -39 -21 -53 -57 -54 -137 -1 -72 1 -76 32 -104 38 -34 76 -37 112 -9
36 28 55 25 106 -17 53 -45 55 -68 12 -111 -98 -94 -280 -80 -368 29 -37 46
-79 157 -80 207 0 88 42 193 98 244 53 48 100 62 182 54 53 -5 70 -3 80 9 16
19 53 19 95 -1z m1171 2 c17 -13 19 -30 22 -160 4 -148 7 -158 41 -137 12 8
13 14 3 36 -7 14 -12 39 -12 55 0 24 5 31 26 36 41 10 212 -2 229 -16 18 -15
20 -81 3 -98 -7 -7 -20 -12 -31 -12 -26 0 -87 -49 -87 -70 0 -23 103 -118 132
-122 16 -2 24 -12 29 -37 13 -61 10 -62 -135 -59 l-131 3 -1 55 c-1 30 -2 60
-3 66 -1 9 -42 34 -56 34 -11 0 -4 -37 11 -58 9 -13 14 -37 12 -60 l-3 -37
-85 -9 c-57 -5 -94 -4 -112 3 -25 9 -28 16 -28 55 0 39 4 47 28 58 27 13 27
13 30 133 4 141 -4 205 -23 205 -36 0 -60 71 -36 109 5 7 37 19 72 26 86 17
83 17 105 1z m2407 -20 c59 -22 107 -64 133 -120 21 -44 24 -66 24 -166 0
-101 -3 -121 -25 -168 -29 -62 -52 -85 -115 -113 -40 -18 -61 -20 -192 -17
-174 4 -182 8 -183 89 0 48 3 53 30 69 l30 17 0 124 0 124 -27 13 c-32 15 -41
40 -36 103 3 42 5 44 38 50 68 12 284 9 323 -5z m583 -9 c43 -22 82 -71 89
-110 7 -37 -13 -93 -44 -121 -29 -26 -27 -36 19 -81 43 -42 56 -83 46 -140 -9
-48 -56 -99 -104 -113 -51 -16 -240 -15 -317 1 l-60 13 -3 53 c-3 57 7 78 41
83 21 3 22 10 29 137 8 139 4 161 -31 161 -29 0 -41 22 -41 72 0 41 4 50 23
58 12 5 90 9 172 7 117 -2 157 -6 181 -20z m-2374 -70 c8 -59 8 -59 61 -72 38
-9 42 -13 45 -44 6 -61 -4 -79 -49 -86 -50 -9 -67 -37 -53 -93 8 -35 11 -37
44 -34 33 2 37 -1 61 -47 32 -60 25 -77 -46 -110 -134 -63 -215 11 -215 198 0
69 -2 77 -22 86 -19 8 -24 19 -26 60 -2 43 1 54 23 75 17 16 25 34 25 56 0 39
14 51 65 57 77 8 79 6 87 -46z m-863 -58 c22 -9 23 -13 19 -83 -4 -93 -15
-106 -82 -106 -43 0 -57 5 -76 25 -29 31 -54 32 -74 3 -38 -53 -9 -128 49
-128 19 0 37 5 40 10 13 21 46 8 91 -34 40 -38 44 -47 35 -65 -6 -11 -31 -32
-55 -46 -54 -32 -152 -35 -218 -6 -44 19 -118 90 -118 115 0 7 -6 18 -13 25
-10 8 -17 2 -30 -28 -43 -96 -99 -131 -210 -131 -63 0 -79 4 -119 29 -106 67
-130 247 -45 339 44 48 93 64 182 60 103 -4 148 -30 186 -108 l26 -52 17 43
c38 95 107 139 220 139 42 0 78 5 81 11 7 10 47 5 94 -12z m-1500 -18 c48 -25
101 -85 101 -114 -1 -32 -32 -90 -55 -102 -46 -23 -95 -57 -95 -66 0 -5 19 -9
43 -9 63 0 71 -9 64 -69 -3 -28 -9 -56 -12 -61 -3 -6 -37 -10 -75 -10 -95 0
-168 28 -218 85 -102 116 -73 277 63 348 43 23 137 22 184 -2z m1585 -79 c-2
-134 -3 -141 -24 -159 -11 -10 -20 -23 -20 -30 0 -19 -6 -17 -56 18 -48 33
-49 49 -3 49 63 0 69 11 69 115 0 84 2 95 18 95 15 0 17 -11 16 -88z m1434 72
c7 -2 12 -21 12 -47 0 -33 -6 -49 -25 -67 -22 -21 -25 -32 -25 -92 0 -67 1
-69 29 -79 33 -12 44 -41 35 -88 -6 -26 -11 -31 -38 -33 -57 -3 -141 4 -152
13 -7 6 -22 5 -38 -1 -15 -5 -52 -10 -82 -10 -75 0 -126 27 -160 86 -23 39
-27 57 -27 125 0 69 4 84 27 119 14 22 44 49 66 60 43 22 127 27 177 10 22 -8
36 -7 58 4 25 13 100 14 143 0z m1357 -4 c25 -9 26 -13 19 -57 -9 -64 -20 -93
-27 -73 -3 8 -8 33 -10 55 -3 22 -8 50 -12 63 -8 25 -6 26 30 12z m-1091 -10
c26 -9 26 -10 26 -130 0 -107 2 -122 20 -140 11 -11 27 -20 35 -20 11 0 15
-12 15 -50 0 -40 -3 -50 -17 -51 -46 -4 -256 2 -264 7 -5 3 -9 25 -9 49 0 42
2 45 33 53 l32 8 3 77 3 76 -33 9 c-27 7 -34 14 -41 48 -7 34 -5 41 14 57 24
19 139 24 183 7z m-2880 -13 c9 -7 22 -24 29 -37 12 -23 18 -25 90 -26 43 -1
80 -4 83 -7 2 -2 -1 -17 -7 -33 -7 -16 -11 -34 -10 -40 0 -6 -5 -16 -12 -23
-11 -8 -18 -6 -32 9 -23 25 -51 25 -94 -1 -46 -28 -84 -18 -105 26 -19 39 -20
63 -5 102 16 42 34 51 63 30z m2698 -150 c19 -6 -23 -61 -50 -65 -17 -3 -21 4
-27 39 -6 35 -4 45 11 56 15 11 20 10 35 -6 10 -10 24 -21 31 -24z m-614 1
c-2 -19 -10 -24 -40 -26 -35 -3 -38 -1 -38 22 0 24 4 26 41 26 36 0 40 -2 37
-22z m-1154 -14 c3 -8 2 -12 -4 -9 -6 3 -10 10 -10 16 0 14 7 11 14 -7z"></path>
<path d="M6152 598 c-8 -8 -12 -53 -12 -135 0 -134 3 -142 55 -129 82 21 88
229 8 265 -30 14 -36 14 -51 -1z m52 -57 c12 -23 13 -35 4 -62 -6 -19 -13 -40
-15 -48 -7 -25 -13 -5 -18 58 -6 85 3 103 29 52z"></path>
<path d="M6717 623 c-11 -10 -8 -71 3 -78 14 -9 60 21 60 39 0 26 -47 56 -63
39z"></path>
<path d="M6707 378 c-6 -23 8 -58 23 -58 22 0 60 25 60 40 0 42 -73 58 -83 18z"></path>
<path d="M2958 454 c-50 -26 -45 -107 6 -120 38 -9 60 -1 73 27 28 58 -26 121
-79 93z"></path>
<path d="M2001 484 c-22 -16 -29 -44 -11 -44 15 0 60 31 60 40 0 16 -28 18
-49 4z"></path>
<path d="M4840 443 c-16 -20 -20 -36 -16 -57 9 -42 24 -56 62 -56 27 0 36 6
49 30 21 40 19 53 -10 84 -31 33 -58 33 -85 -1z"></path>
</g>
</svg>